<svg width="24" height="24" viewBox="0 0 24 24" fill="none" xmlns="http://www.w3.org/2000/svg">
<g id="Icons/Ionicons/Location-outline">
<path id="Vector" d="M12.0012 2.25385C8.27466 2.25385 5.25122 5.1315 5.25122 8.67573C5.25122 12.7539 9.75122 19.2165 11.4036 21.4487C11.4722 21.5429 11.5621 21.6196 11.6659 21.6725C11.7698 21.7253 11.8847 21.7529 12.0012 21.7529C12.1178 21.7529 12.2327 21.7253 12.3365 21.6725C12.4404 21.6196 12.5303 21.5429 12.5989 21.4487C14.2512 19.2175 18.7512 12.7571 18.7512 8.67573C18.7512 5.1315 15.7278 2.25385 12.0012 2.25385Z" stroke="#1E2E50" stroke-opacity="0.4" stroke-width="1.49999" stroke-linecap="round" stroke-linejoin="round"/>
<path id="Vector_2" d="M12.0017 11.2514C13.2444 11.2514 14.2517 10.2441 14.2517 9.00144C14.2517 7.75879 13.2444 6.75143 12.0017 6.75143C10.7591 6.75143 9.75171 7.75879 9.75171 9.00144C9.75171 10.2441 10.7591 11.2514 12.0017 11.2514Z" stroke="#1E2E50" stroke-opacity="0.4" stroke-width="1.49999" stroke-linecap="round" stroke-linejoin="round"/>
</g>
</svg>
