<svg width="20" height="26" viewBox="0 0 20 26" fill="none" xmlns="http://www.w3.org/2000/svg">
<g id="Dashboard" clip-path="url(#clip0_0_1)">
<rect width="1920" height="2473" transform="translate(-46 -277)" fill="black"/>
<g id="Frame 37736">
<path d="M-46 -277H50C58.8366 -277 66 -269.837 66 -261V2880H-46V-277Z" fill="#101010"/>
<g id="Frame 37640">
<g id="Iconly/Light/Profile">
<rect width="80" height="80" transform="translate(-30 -29)" fill="#101010"/>
<g id="Profile">
<path id="Stroke 1" fill-rule="evenodd" clip-rule="evenodd" d="M10.0006 15.421C5.14585 15.421 1 16.1755 1 19.197C1 22.2185 5.11955 23 10.0006 23C14.8553 23 19 22.2443 19 19.224C19 16.2037 14.8816 15.421 10.0006 15.421Z" stroke="#E93E2C" stroke-width="2" stroke-linecap="round" stroke-linejoin="round"/>
<path id="Stroke 3" fill-rule="evenodd" clip-rule="evenodd" d="M9.35764 10.3684C12.5529 10.3684 15.1427 7.82287 15.1427 4.68362C15.1427 1.54438 12.5529 -1 9.35764 -1C6.16233 -1 3.57132 1.54438 3.57132 4.68362C3.56053 7.81226 6.13356 10.3578 9.31687 10.3684H9.35764Z" stroke="white" stroke-width="2" stroke-linecap="round" stroke-linejoin="round"/>
</g>
</g>
</g>
</g>
<g id="Group 34704">
<g id="Frame 37655">
<rect width="112" height="2471" transform="translate(-46 -275)" fill="#101010"/>
<g id="Frame 37640_2">
<g id="Iconly/Light/Profile_2">
<rect width="80" height="80" transform="translate(-30 -27)" fill="#101010"/>
<g id="Profile_2">
<path id="Stroke 1_2" fill-rule="evenodd" clip-rule="evenodd" d="M10.0006 17.421C5.14585 17.421 1 18.1755 1 21.197C1 24.2185 5.11955 25 10.0006 25C14.8553 25 19 24.2443 19 21.224C19 18.2037 14.8816 17.421 10.0006 17.421Z" stroke="#FE1F27" stroke-width="2" stroke-linecap="round" stroke-linejoin="round"/>
<path id="Stroke 3_2" fill-rule="evenodd" clip-rule="evenodd" d="M9.35764 12.3684C12.5529 12.3684 15.1427 9.82287 15.1427 6.68362C15.1427 3.54438 12.5529 1 9.35764 1C6.16233 1 3.57132 3.54438 3.57132 6.68362C3.56053 9.81226 6.13356 12.3578 9.31687 12.3684H9.35764Z" stroke="white" stroke-width="2" stroke-linecap="round" stroke-linejoin="round"/>
</g>
</g>
</g>
</g>
<g id="Group 34703">
<path id="Rectangle 1492" d="M-46 -287H-43.945V60H66V144H-43.945V946H-46V-287Z" fill="url(#paint0_linear_0_1)"/>
</g>
</g>
</g>
<defs>
<linearGradient id="paint0_linear_0_1" x1="-195.505" y1="150" x2="107.098" y2="154.223" gradientUnits="userSpaceOnUse">
<stop offset="0.25" stop-color="#FE1F27"/>
<stop offset="0.828125" stop-color="#FE1F27" stop-opacity="0"/>
</linearGradient>
<clipPath id="clip0_0_1">
<rect width="1920" height="2473" fill="white" transform="translate(-46 -277)"/>
</clipPath>
</defs>
</svg>
